<mxfile host="app.diagrams.net" agent="Mozilla/5.0 (Windows NT 10.0; Win64; x64) AppleWebKit/537.36 (KHTML, like Gecko) Chrome/132.0.0.0 Safari/537.36" version="26.0.16">
  <diagram name="Page-1" id="9MNiKln_7bNOvpsSco1v">
    <mxGraphModel dx="4346" dy="752" grid="1" gridSize="10" guides="1" tooltips="1" connect="1" arrows="1" fold="1" page="1" pageScale="1" pageWidth="850" pageHeight="1100" math="0" shadow="0">
      <root>
        <mxCell id="0" />
        <mxCell id="1" parent="0" />
        <mxCell id="1mPR7iwp-td-xZgJdqya-189" value="ResQConnectÂ " style="whiteSpace=wrap;strokeWidth=5;fontSize=29;perimeterSpacing=5;fillColor=#b0e3e6;strokeColor=#0e8088;" vertex="1" parent="1">
          <mxGeometry x="1018" y="1735" width="320" height="54" as="geometry" />
        </mxCell>
        <mxCell id="1mPR7iwp-td-xZgJdqya-190" value="User Validation - Login" style="rhombus;strokeWidth=5;whiteSpace=wrap;fontSize=29;perimeterSpacing=5;fillColor=#d0cee2;strokeColor=#56517e;" vertex="1" parent="1">
          <mxGeometry x="1030" y="1850" width="290" height="250" as="geometry" />
        </mxCell>
        <mxCell id="1mPR7iwp-td-xZgJdqya-191" value="Admin Dashboard" style="whiteSpace=wrap;strokeWidth=5;fontSize=29;fillColor=#fad9d5;strokeColor=#ae4132;" vertex="1" parent="1">
          <mxGeometry x="570" y="2198" width="290" height="54" as="geometry" />
        </mxCell>
        <mxCell id="1mPR7iwp-td-xZgJdqya-192" value="Disaster Portal" style="whiteSpace=wrap;strokeWidth=5;perimeterSpacing=3;fontSize=29;fillColor=#fad9d5;strokeColor=#ae4132;" vertex="1" parent="1">
          <mxGeometry x="490" y="2370" width="296" height="54" as="geometry" />
        </mxCell>
        <mxCell id="1mPR7iwp-td-xZgJdqya-193" value="Volunteer Portal" style="whiteSpace=wrap;strokeWidth=5;perimeterSpacing=3;fontSize=22;fillColor=#fad9d5;strokeColor=#ae4132;" vertex="1" parent="1">
          <mxGeometry x="1710" y="2360" width="270" height="64" as="geometry" />
        </mxCell>
        <mxCell id="1mPR7iwp-td-xZgJdqya-194" value="Select Portal" style="rhombus;strokeWidth=5;whiteSpace=wrap;fontSize=26;fillColor=#dae8fc;strokeColor=#6c8ebf;" vertex="1" parent="1">
          <mxGeometry x="1930" y="2152" width="210" height="145" as="geometry" />
        </mxCell>
        <mxCell id="1mPR7iwp-td-xZgJdqya-195" value="Crisis Updates" style="whiteSpace=wrap;strokeWidth=5;fontSize=22;fillColor=#ffe6cc;strokeColor=#d79b00;" vertex="1" parent="1">
          <mxGeometry x="-40" y="2555" width="221" height="65" as="geometry" />
        </mxCell>
        <mxCell id="1mPR7iwp-td-xZgJdqya-196" value="Emergency Alerts Sent to Phones" style="whiteSpace=wrap;strokeWidth=5;fontSize=20;fillColor=#ffe6cc;strokeColor=#d79b00;" vertex="1" parent="1">
          <mxGeometry x="231" y="2543" width="260" height="78" as="geometry" />
        </mxCell>
        <mxCell id="1mPR7iwp-td-xZgJdqya-197" value="Resource Appeals" style="whiteSpace=wrap;strokeWidth=5;fontSize=23;fillColor=#ffe6cc;strokeColor=#d79b00;" vertex="1" parent="1">
          <mxGeometry x="530" y="2555" width="210" height="65" as="geometry" />
        </mxCell>
        <mxCell id="1mPR7iwp-td-xZgJdqya-198" value="Weather Updates" style="whiteSpace=wrap;strokeWidth=5;fontSize=25;fillColor=#ffe6cc;strokeColor=#d79b00;" vertex="1" parent="1">
          <mxGeometry x="774" y="2555.5" width="206" height="64.5" as="geometry" />
        </mxCell>
        <mxCell id="1mPR7iwp-td-xZgJdqya-199" value="Chatbot Support" style="whiteSpace=wrap;strokeWidth=5;fontSize=21;fillColor=#ffe6cc;strokeColor=#d79b00;" vertex="1" parent="1">
          <mxGeometry x="1007" y="2555" width="177" height="65" as="geometry" />
        </mxCell>
        <mxCell id="1mPR7iwp-td-xZgJdqya-200" value="Receive Notifications?" style="rhombus;strokeWidth=5;whiteSpace=wrap;fontSize=23;perimeterSpacing=5;fillColor=#b1ddf0;strokeColor=#10739e;" vertex="1" parent="1">
          <mxGeometry x="1220" y="2450" width="280" height="260" as="geometry" />
        </mxCell>
        <mxCell id="1mPR7iwp-td-xZgJdqya-201" value="Send Email and Chatbot Alerts" style="whiteSpace=wrap;strokeWidth=5;fontSize=25;perimeterSpacing=5;fillColor=#ffe6cc;strokeColor=#d79b00;" vertex="1" parent="1">
          <mxGeometry x="1152" y="2840" width="328" height="77" as="geometry" />
        </mxCell>
        <mxCell id="1mPR7iwp-td-xZgJdqya-203" value="Register or Login" style="rhombus;strokeWidth=5;whiteSpace=wrap;fontSize=27;fillColor=#b1ddf0;strokeColor=#10739e;" vertex="1" parent="1">
          <mxGeometry x="1680" y="2495" width="290" height="174" as="geometry" />
        </mxCell>
        <mxCell id="1mPR7iwp-td-xZgJdqya-204" value="Fill Volunteer Form" style="whiteSpace=wrap;strokeWidth=5;fontSize=22;perimeterSpacing=5;fillColor=#ffe6cc;strokeColor=#d79b00;" vertex="1" parent="1">
          <mxGeometry x="1560" y="2775" width="226" height="54" as="geometry" />
        </mxCell>
        <mxCell id="1mPR7iwp-td-xZgJdqya-205" value="Volunteer Dashboard" style="whiteSpace=wrap;strokeWidth=5;perimeterSpacing=5;fontSize=27;fillColor=#ffe6cc;strokeColor=#d79b00;" vertex="1" parent="1">
          <mxGeometry x="1836" y="2775" width="284" height="54" as="geometry" />
        </mxCell>
        <mxCell id="1mPR7iwp-td-xZgJdqya-206" value="About the Agency" style="whiteSpace=wrap;strokeWidth=5;fontSize=29;fillColor=#fff2cc;strokeColor=#d6b656;" vertex="1" parent="1">
          <mxGeometry x="1770" y="2891" width="270" height="59" as="geometry" />
        </mxCell>
        <mxCell id="1mPR7iwp-td-xZgJdqya-207" value="Who We Are" style="whiteSpace=wrap;strokeWidth=5;fontSize=28;fillColor=#ffe6cc;strokeColor=#d79b00;" vertex="1" parent="1">
          <mxGeometry x="1320" y="3070" width="187" height="95" as="geometry" />
        </mxCell>
        <mxCell id="1mPR7iwp-td-xZgJdqya-208" value="What We Do" style="whiteSpace=wrap;strokeWidth=5;fontSize=28;fillColor=#ffe6cc;strokeColor=#d79b00;" vertex="1" parent="1">
          <mxGeometry x="1570" y="3070" width="174" height="95" as="geometry" />
        </mxCell>
        <mxCell id="1mPR7iwp-td-xZgJdqya-209" value="Where We Are" style="whiteSpace=wrap;strokeWidth=5;fontSize=27;fillColor=#ffe6cc;strokeColor=#d79b00;" vertex="1" parent="1">
          <mxGeometry x="1790" y="3070" width="161" height="95" as="geometry" />
        </mxCell>
        <mxCell id="1mPR7iwp-td-xZgJdqya-210" value="Strategies" style="whiteSpace=wrap;strokeWidth=5;fontSize=28;fillColor=#ffe6cc;strokeColor=#d79b00;" vertex="1" parent="1">
          <mxGeometry x="1993" y="3070" width="147" height="95" as="geometry" />
        </mxCell>
        <mxCell id="1mPR7iwp-td-xZgJdqya-211" value="Our Projects" style="whiteSpace=wrap;strokeWidth=5;fontSize=28;fillColor=#ffe6cc;strokeColor=#d79b00;" vertex="1" parent="1">
          <mxGeometry x="2200" y="3070" width="155" height="95" as="geometry" />
        </mxCell>
        <mxCell id="1mPR7iwp-td-xZgJdqya-212" value="Donation Portal" style="whiteSpace=wrap;strokeWidth=5;perimeterSpacing=5;fontSize=28;fillColor=#fad9d5;strokeColor=#ae4132;" vertex="1" parent="1">
          <mxGeometry x="2405" y="2360" width="290" height="70" as="geometry" />
        </mxCell>
        <mxCell id="1mPR7iwp-td-xZgJdqya-213" value="Donate or Gift Bundles" style="rhombus;strokeWidth=5;whiteSpace=wrap;fontSize=29;fillColor=#b1ddf0;strokeColor=#10739e;" vertex="1" parent="1">
          <mxGeometry x="2340" y="2510" width="340" height="210" as="geometry" />
        </mxCell>
        <mxCell id="1mPR7iwp-td-xZgJdqya-214" value="Proceed to Payment" style="whiteSpace=wrap;strokeWidth=5;fontSize=26;fillColor=#ffe6cc;strokeColor=#d79b00;" vertex="1" parent="1">
          <mxGeometry x="2220" y="2775" width="253" height="65" as="geometry" />
        </mxCell>
        <mxCell id="1mPR7iwp-td-xZgJdqya-215" value="Choose and Send Gifts" style="whiteSpace=wrap;strokeWidth=5;fontSize=20;fillColor=#ffe6cc;strokeColor=#d79b00;" vertex="1" parent="1">
          <mxGeometry x="2524" y="2775" width="266" height="65" as="geometry" />
        </mxCell>
        <mxCell id="1mPR7iwp-td-xZgJdqya-216" value="Confirmation Sent" style="whiteSpace=wrap;strokeWidth=5;fontSize=24;fillColor=#d5e8d4;strokeColor=#82b366;" vertex="1" parent="1">
          <mxGeometry x="2430" y="2995" width="210" height="75" as="geometry" />
        </mxCell>
        <mxCell id="1mPR7iwp-td-xZgJdqya-219" value="" style="curved=1;startArrow=none;endArrow=block;exitX=0.5;exitY=1;entryX=0.5;entryY=0;rounded=0;strokeWidth=5;" edge="1" parent="1" source="1mPR7iwp-td-xZgJdqya-189" target="1mPR7iwp-td-xZgJdqya-190">
          <mxGeometry relative="1" as="geometry">
            <Array as="points" />
          </mxGeometry>
        </mxCell>
        <mxCell id="1mPR7iwp-td-xZgJdqya-220" value="Admin" style="curved=1;startArrow=none;endArrow=block;exitX=0;exitY=0.66;entryX=0.5;entryY=-0.01;rounded=0;fontSize=31;strokeWidth=5;" edge="1" parent="1" source="1mPR7iwp-td-xZgJdqya-190" target="1mPR7iwp-td-xZgJdqya-191">
          <mxGeometry relative="1" as="geometry">
            <Array as="points">
              <mxPoint x="740" y="2116" />
            </Array>
          </mxGeometry>
        </mxCell>
        <mxCell id="1mPR7iwp-td-xZgJdqya-221" value="" style="curved=1;startArrow=none;endArrow=block;exitX=0.4;exitY=0.99;entryX=0.4;entryY=0;rounded=0;strokeWidth=5;" edge="1" parent="1" source="1mPR7iwp-td-xZgJdqya-191" target="1mPR7iwp-td-xZgJdqya-192">
          <mxGeometry relative="1" as="geometry">
            <Array as="points">
              <mxPoint x="667" y="2334" />
            </Array>
          </mxGeometry>
        </mxCell>
        <mxCell id="1mPR7iwp-td-xZgJdqya-222" value="" style="curved=1;startArrow=none;endArrow=block;exitX=1;exitY=0.71;entryX=0.25;entryY=0;rounded=0;entryDx=0;entryDy=0;strokeWidth=5;" edge="1" parent="1" target="1mPR7iwp-td-xZgJdqya-193">
          <mxGeometry relative="1" as="geometry">
            <Array as="points">
              <mxPoint x="1626.48" y="2317.66" />
            </Array>
            <mxPoint x="873.48" y="2220" as="sourcePoint" />
            <mxPoint x="1741" y="2353.66" as="targetPoint" />
          </mxGeometry>
        </mxCell>
        <mxCell id="1mPR7iwp-td-xZgJdqya-223" value="User" style="curved=1;startArrow=none;endArrow=block;exitX=1;exitY=0.58;entryX=0.5;entryY=0;rounded=0;fontSize=34;strokeWidth=5;" edge="1" parent="1" source="1mPR7iwp-td-xZgJdqya-190" target="1mPR7iwp-td-xZgJdqya-194">
          <mxGeometry relative="1" as="geometry">
            <Array as="points">
              <mxPoint x="2035" y="2116" />
            </Array>
          </mxGeometry>
        </mxCell>
        <mxCell id="1mPR7iwp-td-xZgJdqya-224" value="Disaster Alerts" style="curved=1;startArrow=none;endArrow=block;exitX=0;exitY=0.61;entryX=1;entryY=0.38;rounded=0;strokeWidth=5;fontSize=29;" edge="1" parent="1" source="1mPR7iwp-td-xZgJdqya-194" target="1mPR7iwp-td-xZgJdqya-192">
          <mxGeometry x="0.053" y="-19" relative="1" as="geometry">
            <Array as="points">
              <mxPoint x="1540" y="2334" />
            </Array>
            <mxPoint x="1" as="offset" />
          </mxGeometry>
        </mxCell>
        <mxCell id="1mPR7iwp-td-xZgJdqya-225" value="" style="curved=1;startArrow=none;endArrow=block;exitX=0;exitY=0.63;entryX=0.5;entryY=0;rounded=0;strokeWidth=5;" edge="1" parent="1" source="1mPR7iwp-td-xZgJdqya-192" target="1mPR7iwp-td-xZgJdqya-195">
          <mxGeometry relative="1" as="geometry">
            <Array as="points">
              <mxPoint x="100" y="2449" />
            </Array>
          </mxGeometry>
        </mxCell>
        <mxCell id="1mPR7iwp-td-xZgJdqya-226" value="" style="curved=1;startArrow=none;endArrow=block;exitX=0;exitY=0.73;entryX=0.5;entryY=0;rounded=0;strokeWidth=5;" edge="1" parent="1" source="1mPR7iwp-td-xZgJdqya-192" target="1mPR7iwp-td-xZgJdqya-196">
          <mxGeometry relative="1" as="geometry">
            <Array as="points">
              <mxPoint x="361" y="2449" />
            </Array>
          </mxGeometry>
        </mxCell>
        <mxCell id="1mPR7iwp-td-xZgJdqya-227" value="" style="curved=1;startArrow=none;endArrow=block;exitX=0.27;exitY=1;entryX=0.5;entryY=0;rounded=0;strokeWidth=5;" edge="1" parent="1" source="1mPR7iwp-td-xZgJdqya-192" target="1mPR7iwp-td-xZgJdqya-197">
          <mxGeometry relative="1" as="geometry">
            <Array as="points">
              <mxPoint x="633" y="2449" />
            </Array>
          </mxGeometry>
        </mxCell>
        <mxCell id="1mPR7iwp-td-xZgJdqya-228" value="" style="curved=1;startArrow=none;endArrow=block;exitX=1;exitY=0.98;entryX=0.5;entryY=0;rounded=0;strokeWidth=5;" edge="1" parent="1" source="1mPR7iwp-td-xZgJdqya-192" target="1mPR7iwp-td-xZgJdqya-198">
          <mxGeometry relative="1" as="geometry">
            <Array as="points">
              <mxPoint x="866" y="2449" />
            </Array>
          </mxGeometry>
        </mxCell>
        <mxCell id="1mPR7iwp-td-xZgJdqya-229" value="" style="curved=1;startArrow=none;endArrow=block;exitX=1;exitY=0.7;entryX=0.5;entryY=0;rounded=0;strokeWidth=5;" edge="1" parent="1" source="1mPR7iwp-td-xZgJdqya-192" target="1mPR7iwp-td-xZgJdqya-199">
          <mxGeometry relative="1" as="geometry">
            <Array as="points">
              <mxPoint x="1096" y="2449" />
            </Array>
          </mxGeometry>
        </mxCell>
        <mxCell id="1mPR7iwp-td-xZgJdqya-230" value="" style="curved=1;startArrow=none;endArrow=block;exitX=1;exitY=0.62;entryX=0.5;entryY=0;rounded=0;strokeWidth=5;" edge="1" parent="1" source="1mPR7iwp-td-xZgJdqya-192" target="1mPR7iwp-td-xZgJdqya-200">
          <mxGeometry relative="1" as="geometry">
            <Array as="points">
              <mxPoint x="1340" y="2449" />
            </Array>
          </mxGeometry>
        </mxCell>
        <mxCell id="1mPR7iwp-td-xZgJdqya-231" value="Yes" style="curved=1;startArrow=none;endArrow=block;exitX=0.06;exitY=1;entryX=0.5;entryY=0;rounded=0;endSize=5;startSize=5;fontSize=29;strokeWidth=5;" edge="1" parent="1" source="1mPR7iwp-td-xZgJdqya-200" target="1mPR7iwp-td-xZgJdqya-201">
          <mxGeometry relative="1" as="geometry">
            <Array as="points">
              <mxPoint x="1214" y="2727" />
            </Array>
          </mxGeometry>
        </mxCell>
        <mxCell id="1mPR7iwp-td-xZgJdqya-233" value="Volunteer Management" style="curved=1;startArrow=none;endArrow=block;exitX=1;exitY=0.92;entryX=1;entryY=0.2;rounded=0;fontSize=29;strokeWidth=6;" edge="1" parent="1" source="1mPR7iwp-td-xZgJdqya-194" target="1mPR7iwp-td-xZgJdqya-193">
          <mxGeometry relative="1" as="geometry">
            <Array as="points">
              <mxPoint x="2166" y="2334" />
            </Array>
          </mxGeometry>
        </mxCell>
        <mxCell id="1mPR7iwp-td-xZgJdqya-234" value="" style="curved=1;startArrow=none;endArrow=block;exitX=0.5;exitY=1;entryX=0.5;entryY=0;rounded=0;strokeWidth=5;" edge="1" parent="1" source="1mPR7iwp-td-xZgJdqya-193" target="1mPR7iwp-td-xZgJdqya-203">
          <mxGeometry relative="1" as="geometry">
            <Array as="points" />
          </mxGeometry>
        </mxCell>
        <mxCell id="1mPR7iwp-td-xZgJdqya-235" value="Register" style="curved=1;startArrow=none;endArrow=block;exitX=0.06;exitY=1;entryX=0.5;entryY=0;rounded=0;fontSize=29;strokeWidth=5;" edge="1" parent="1" source="1mPR7iwp-td-xZgJdqya-203" target="1mPR7iwp-td-xZgJdqya-204">
          <mxGeometry relative="1" as="geometry">
            <Array as="points">
              <mxPoint x="1687" y="2727" />
            </Array>
          </mxGeometry>
        </mxCell>
        <mxCell id="1mPR7iwp-td-xZgJdqya-236" value="Login" style="curved=1;startArrow=none;endArrow=block;exitX=0.94;exitY=1;entryX=0.5;entryY=0;rounded=0;fontSize=29;strokeWidth=5;" edge="1" parent="1" source="1mPR7iwp-td-xZgJdqya-203" target="1mPR7iwp-td-xZgJdqya-205">
          <mxGeometry relative="1" as="geometry">
            <Array as="points">
              <mxPoint x="1940" y="2727" />
            </Array>
          </mxGeometry>
        </mxCell>
        <mxCell id="1mPR7iwp-td-xZgJdqya-237" value="" style="curved=1;startArrow=none;endArrow=block;exitX=0.5;exitY=1;entryX=0.5;entryY=0;rounded=0;strokeWidth=5;" edge="1" parent="1" source="1mPR7iwp-td-xZgJdqya-205" target="1mPR7iwp-td-xZgJdqya-206">
          <mxGeometry relative="1" as="geometry">
            <Array as="points" />
          </mxGeometry>
        </mxCell>
        <mxCell id="1mPR7iwp-td-xZgJdqya-238" value="" style="curved=1;startArrow=none;endArrow=block;exitX=0;exitY=0.7;entryX=0.5;entryY=0;rounded=0;strokeWidth=5;fontSize=14;" edge="1" parent="1" source="1mPR7iwp-td-xZgJdqya-206" target="1mPR7iwp-td-xZgJdqya-207">
          <mxGeometry relative="1" as="geometry">
            <Array as="points">
              <mxPoint x="1494" y="2970" />
            </Array>
          </mxGeometry>
        </mxCell>
        <mxCell id="1mPR7iwp-td-xZgJdqya-239" value="" style="curved=1;startArrow=none;endArrow=block;exitX=0;exitY=0.86;entryX=0.5;entryY=0;rounded=0;strokeWidth=5;" edge="1" parent="1" source="1mPR7iwp-td-xZgJdqya-206" target="1mPR7iwp-td-xZgJdqya-208">
          <mxGeometry relative="1" as="geometry">
            <Array as="points">
              <mxPoint x="1690" y="2970" />
            </Array>
          </mxGeometry>
        </mxCell>
        <mxCell id="1mPR7iwp-td-xZgJdqya-240" value="" style="curved=1;startArrow=none;endArrow=block;exitX=0.37;exitY=1;entryX=0.5;entryY=0;rounded=0;strokeWidth=5;" edge="1" parent="1" source="1mPR7iwp-td-xZgJdqya-206" target="1mPR7iwp-td-xZgJdqya-209">
          <mxGeometry relative="1" as="geometry">
            <Array as="points">
              <mxPoint x="1894" y="2970" />
            </Array>
          </mxGeometry>
        </mxCell>
        <mxCell id="1mPR7iwp-td-xZgJdqya-241" value="" style="curved=1;startArrow=none;endArrow=block;exitX=0.92;exitY=1;entryX=0.5;entryY=0;rounded=0;strokeWidth=5;" edge="1" parent="1" source="1mPR7iwp-td-xZgJdqya-206" target="1mPR7iwp-td-xZgJdqya-210">
          <mxGeometry relative="1" as="geometry">
            <Array as="points">
              <mxPoint x="2090" y="2970" />
            </Array>
          </mxGeometry>
        </mxCell>
        <mxCell id="1mPR7iwp-td-xZgJdqya-242" value="" style="curved=1;startArrow=none;endArrow=block;exitX=1;exitY=0.76;entryX=0.5;entryY=0;rounded=0;strokeWidth=5;" edge="1" parent="1" source="1mPR7iwp-td-xZgJdqya-206" target="1mPR7iwp-td-xZgJdqya-211">
          <mxGeometry relative="1" as="geometry">
            <Array as="points">
              <mxPoint x="2281" y="2970" />
            </Array>
          </mxGeometry>
        </mxCell>
        <mxCell id="1mPR7iwp-td-xZgJdqya-243" value="Donate Portal" style="curved=1;startArrow=none;endArrow=block;exitX=1;exitY=0.62;entryX=0.5;entryY=0;rounded=0;fontSize=29;strokeWidth=6;" edge="1" parent="1" source="1mPR7iwp-td-xZgJdqya-194" target="1mPR7iwp-td-xZgJdqya-212">
          <mxGeometry relative="1" as="geometry">
            <Array as="points">
              <mxPoint x="2503" y="2334" />
            </Array>
          </mxGeometry>
        </mxCell>
        <mxCell id="1mPR7iwp-td-xZgJdqya-244" value="" style="curved=1;startArrow=none;endArrow=block;exitX=0.5;exitY=1;entryX=0.5;entryY=0;rounded=0;strokeWidth=5;" edge="1" parent="1" source="1mPR7iwp-td-xZgJdqya-212" target="1mPR7iwp-td-xZgJdqya-213">
          <mxGeometry relative="1" as="geometry">
            <Array as="points" />
          </mxGeometry>
        </mxCell>
        <mxCell id="1mPR7iwp-td-xZgJdqya-245" value="Donate" style="curved=1;startArrow=none;endArrow=block;exitX=0.05;exitY=1;entryX=0.5;entryY=0;rounded=0;strokeWidth=5;fontSize=29;" edge="1" parent="1" source="1mPR7iwp-td-xZgJdqya-213" target="1mPR7iwp-td-xZgJdqya-214">
          <mxGeometry relative="1" as="geometry">
            <Array as="points">
              <mxPoint x="2372" y="2727" />
            </Array>
          </mxGeometry>
        </mxCell>
        <mxCell id="1mPR7iwp-td-xZgJdqya-246" value="Gift Bundles" style="curved=1;startArrow=none;endArrow=block;exitX=0.95;exitY=1;entryX=0.5;entryY=0;rounded=0;strokeWidth=5;fontSize=29;" edge="1" parent="1" source="1mPR7iwp-td-xZgJdqya-213" target="1mPR7iwp-td-xZgJdqya-215">
          <mxGeometry relative="1" as="geometry">
            <Array as="points">
              <mxPoint x="2633" y="2727" />
            </Array>
          </mxGeometry>
        </mxCell>
        <mxCell id="1mPR7iwp-td-xZgJdqya-247" value="" style="curved=1;startArrow=none;endArrow=block;exitX=0.5;exitY=1;entryX=0.14;entryY=0;rounded=0;strokeWidth=5;" edge="1" parent="1" source="1mPR7iwp-td-xZgJdqya-214" target="1mPR7iwp-td-xZgJdqya-216">
          <mxGeometry relative="1" as="geometry">
            <Array as="points">
              <mxPoint x="2372" y="2866" />
            </Array>
          </mxGeometry>
        </mxCell>
        <mxCell id="1mPR7iwp-td-xZgJdqya-248" value="" style="curved=1;startArrow=none;endArrow=block;exitX=0.5;exitY=1;entryX=0.86;entryY=0;rounded=0;strokeWidth=5;" edge="1" parent="1" source="1mPR7iwp-td-xZgJdqya-215" target="1mPR7iwp-td-xZgJdqya-216">
          <mxGeometry relative="1" as="geometry">
            <Array as="points">
              <mxPoint x="2633" y="2866" />
            </Array>
          </mxGeometry>
        </mxCell>
      </root>
    </mxGraphModel>
  </diagram>
</mxfile>
